<svg width="8" height="14" viewBox="0 0 8 14" fill="none" xmlns="http://www.w3.org/2000/svg">
<path d="M5.62668e-05 7.32804C0.000736713 7.20658 0.0266943 7.0866 0.0762777 6.97573C0.125861 6.86485 0.197984 6.76552 0.288056 6.68404L6.32206 1.09504C6.51284 0.92336 6.76041 0.828369 7.01706 0.828369C7.27371 0.828369 7.52128 0.92336 7.71206 1.09504C7.8025 1.17607 7.87485 1.27527 7.92438 1.38614C7.97391 1.49702 7.99951 1.6171 7.99951 1.73854C7.99951 1.85998 7.97391 1.98005 7.92438 2.09093C7.87485 2.20181 7.8025 2.301 7.71206 2.38204L2.37306 7.32804L7.71206 12.274C7.8025 12.3551 7.87485 12.4543 7.92438 12.5651C7.97391 12.676 7.99951 12.7961 7.99951 12.9175C7.99951 13.039 7.97391 13.1591 7.92438 13.2699C7.87485 13.3808 7.8025 13.48 7.71206 13.561C7.52128 13.7327 7.27371 13.8277 7.01706 13.8277C6.76041 13.8277 6.51284 13.7327 6.32206 13.561L0.288056 7.97204C0.197984 7.89056 0.125861 7.79122 0.0762777 7.68035C0.0266943 7.56947 0.000736713 7.44949 5.62668e-05 7.32804Z" fill="#19202C"/>
</svg>
