<svg width="50" height="51" viewBox="0 0 50 51" fill="none" xmlns="http://www.w3.org/2000/svg">
<path fill-rule="evenodd" clip-rule="evenodd" d="M43.4693 22.3306C42.653 22.7388 42.653 26.2082 46.9387 28.249C46.9387 28.249 40.8162 29.1674 36.9387 24.2694C36.0203 24.3715 34.9999 24.6776 33.9795 24.6776C25.6121 24.6776 20.6121 19.8817 20.6121 13.8612C20.6121 7.84084 25.7142 3.04492 33.9795 3.04492C42.2448 3.04492 48.8774 7.94288 48.8774 13.8612C48.8774 17.3306 46.8366 20.2898 43.4693 22.3306ZM17.755 14.9837C18.1632 21.6164 23.9795 27.2286 32.9591 27.7388C33.9795 27.7388 34.9999 27.5347 35.9183 27.4327L36.2244 27.3306C38.7754 29.9837 42.0407 30.4939 43.9795 30.4939C42.0407 37.7388 34.8979 43.0449 24.0815 43.0449C22.5509 43.0449 21.0203 42.6368 19.5917 42.4327C13.6734 49.8817 4.38765 48.4531 4.38765 48.4531C11.0203 45.2898 10.8162 40.1878 9.69377 39.4735C4.48969 36.4123 1.42847 31.8204 1.42847 26.6163C1.42847 18.8612 8.77541 12.3306 18.7754 10.4939C17.9591 11.9225 17.653 13.4531 17.755 14.9837Z" fill="#006838"/>
</svg>
