<svg width="50" height="51" viewBox="0 0 50 51" fill="none" xmlns="http://www.w3.org/2000/svg">
<g clip-path="url(#clip0_109_82050)">
<path d="M48.5715 40.8C45.9185 47.6368 39.898 50.5959 32.5511 48.147C16.5307 43.0449 6.0205 32.3306 1.32662 16.1061C1.22458 15.8 1.0205 15.4939 0.918457 15.1878C0.918457 13.8612 0.918457 12.4327 0.918457 11.1061C1.93887 9.06532 2.75519 6.92246 3.87764 4.98369C4.48989 3.96328 5.61233 3.04491 6.73478 2.53471C10.6123 0.800016 11.7348 1.31022 13.7756 4.98369C15.0001 7.02451 16.1225 9.16736 17.4491 11.1061C18.3674 12.4327 18.3674 13.6572 17.1429 14.6776C16.6327 15.0857 16.1225 15.5959 15.6123 16.1061C11.4287 19.6776 11.4287 19.5755 14.2858 24.3714C17.7552 29.9837 22.4491 34.0653 28.2654 37.2286C29.8981 38.147 31.0205 37.8408 32.245 36.5143C36.8368 31.6163 36.8368 31.7184 42.5511 34.7796C44.5919 35.9021 46.5307 37.0245 48.4695 38.147C48.5715 39.1674 48.5715 39.9837 48.5715 40.8Z" fill="#006838"/>
</g>
<defs>
<clipPath id="clip0_109_82050">
<rect width="50" height="50" fill="white" transform="translate(0 0.800049)"/>
</clipPath>
</defs>
</svg>
