<svg width="140" height="24" viewBox="0 0 140 24" fill="none" xmlns="http://www.w3.org/2000/svg">
<path d="M17.9168 14.3185C17.6578 14.5694 17.5388 14.9324 17.5978 15.2883L18.4867 20.2077C18.5617 20.6246 18.3857 21.0466 18.0368 21.2875C17.6948 21.5375 17.2399 21.5675 16.8669 21.3675L12.4385 19.0578C12.2845 18.9758 12.1136 18.9319 11.9386 18.9269H11.6676C11.5736 18.9409 11.4816 18.9708 11.3976 19.0168L6.96823 21.3375C6.74926 21.4475 6.50129 21.4865 6.25832 21.4475C5.6664 21.3355 5.27145 20.7716 5.36844 20.1767L6.25832 15.2573C6.31731 14.8984 6.19833 14.5334 5.93936 14.2785L2.32883 10.7789C2.02687 10.486 1.92189 10.046 2.05987 9.64907C2.19385 9.25312 2.53581 8.96416 2.94875 8.89916L7.9181 8.17826C8.29605 8.13926 8.62801 7.90929 8.79799 7.56934L10.9877 3.07992C11.0397 2.97994 11.1067 2.88795 11.1877 2.80996L11.2777 2.73997C11.3247 2.68798 11.3786 2.64498 11.4386 2.60999L11.5476 2.56999L11.7176 2.5H12.1386C12.5145 2.53899 12.8455 2.76397 13.0184 3.09992L15.2371 7.56934C15.3971 7.8963 15.7081 8.12327 16.067 8.17826L21.0364 8.89916C21.4563 8.95916 21.8073 9.24912 21.9463 9.64907C22.0773 10.05 21.9643 10.49 21.6563 10.7789L17.9168 14.3185Z" fill="#FFC51E"/>
<path d="M46.9168 14.3185C46.6578 14.5694 46.5388 14.9324 46.5978 15.2883L47.4867 20.2077C47.5617 20.6246 47.3857 21.0466 47.0368 21.2875C46.6948 21.5375 46.2399 21.5675 45.8669 21.3675L41.4385 19.0578C41.2845 18.9758 41.1136 18.9319 40.9386 18.9269H40.6676C40.5736 18.9409 40.4816 18.9708 40.3976 19.0168L35.9682 21.3375C35.7493 21.4475 35.5013 21.4865 35.2583 21.4475C34.6664 21.3355 34.2714 20.7716 34.3684 20.1767L35.2583 15.2573C35.3173 14.8984 35.1983 14.5334 34.9394 14.2785L31.3288 10.7789C31.0269 10.486 30.9219 10.046 31.0599 9.64907C31.1939 9.25312 31.5358 8.96416 31.9488 8.89916L36.9181 8.17826C37.2961 8.13926 37.628 7.90929 37.798 7.56934L39.9877 3.07992C40.0397 2.97994 40.1067 2.88795 40.1877 2.80996L40.2777 2.73997C40.3247 2.68798 40.3786 2.64498 40.4386 2.60999L40.5476 2.56999L40.7176 2.5H41.1386C41.5145 2.53899 41.8455 2.76397 42.0184 3.09992L44.2371 7.56934C44.3971 7.8963 44.7081 8.12327 45.067 8.17826L50.0364 8.89916C50.4563 8.95916 50.8073 9.24912 50.9463 9.64907C51.0773 10.05 50.9643 10.49 50.6563 10.7789L46.9168 14.3185Z" fill="#FFC51E"/>
<path d="M75.9168 14.3185C75.6578 14.5694 75.5388 14.9324 75.5978 15.2883L76.4867 20.2077C76.5617 20.6246 76.3857 21.0466 76.0368 21.2875C75.6948 21.5375 75.2399 21.5675 74.8669 21.3675L70.4385 19.0578C70.2845 18.9758 70.1136 18.9319 69.9386 18.9269H69.6676C69.5736 18.9409 69.4816 18.9708 69.3976 19.0168L64.9682 21.3375C64.7493 21.4475 64.5013 21.4865 64.2583 21.4475C63.6664 21.3355 63.2714 20.7716 63.3684 20.1767L64.2583 15.2573C64.3173 14.8984 64.1983 14.5334 63.9394 14.2785L60.3288 10.7789C60.0269 10.486 59.9219 10.046 60.0599 9.64907C60.1939 9.25312 60.5358 8.96416 60.9488 8.89916L65.9181 8.17826C66.2961 8.13926 66.628 7.90929 66.798 7.56934L68.9877 3.07992C69.0397 2.97994 69.1067 2.88795 69.1877 2.80996L69.2777 2.73997C69.3247 2.68798 69.3786 2.64498 69.4386 2.60999L69.5476 2.56999L69.7176 2.5H70.1386C70.5145 2.53899 70.8455 2.76397 71.0184 3.09992L73.2371 7.56934C73.3971 7.8963 73.7081 8.12327 74.067 8.17826L79.0364 8.89916C79.4563 8.95916 79.8073 9.24912 79.9463 9.64907C80.0773 10.05 79.9643 10.49 79.6563 10.7789L75.9168 14.3185Z" fill="#FFC51E"/>
<path d="M104.917 14.3185C104.658 14.5694 104.539 14.9324 104.598 15.2883L105.487 20.2077C105.562 20.6246 105.386 21.0466 105.037 21.2875C104.695 21.5375 104.24 21.5675 103.867 21.3675L99.4385 19.0578C99.2845 18.9758 99.1136 18.9319 98.9386 18.9269H98.6676C98.5736 18.9409 98.4816 18.9708 98.3976 19.0168L93.9682 21.3375C93.7493 21.4475 93.5013 21.4865 93.2583 21.4475C92.6664 21.3355 92.2714 20.7716 92.3684 20.1767L93.2583 15.2573C93.3173 14.8984 93.1983 14.5334 92.9394 14.2785L89.3288 10.7789C89.0269 10.486 88.9219 10.046 89.0599 9.64907C89.1939 9.25312 89.5358 8.96416 89.9488 8.89916L94.9181 8.17826C95.2961 8.13926 95.628 7.90929 95.798 7.56934L97.9877 3.07992C98.0397 2.97994 98.1067 2.88795 98.1877 2.80996L98.2777 2.73997C98.3247 2.68798 98.3786 2.64498 98.4386 2.60999L98.5476 2.56999L98.7176 2.5H99.1386C99.5145 2.53899 99.8455 2.76397 100.018 3.09992L102.237 7.56934C102.397 7.8963 102.708 8.12327 103.067 8.17826L108.036 8.89916C108.456 8.95916 108.807 9.24912 108.946 9.64907C109.077 10.05 108.964 10.49 108.656 10.7789L104.917 14.3185Z" fill="#FFC51E"/>
<path d="M133.917 14.3185C133.658 14.5694 133.539 14.9324 133.598 15.2883L134.487 20.2077C134.562 20.6246 134.386 21.0466 134.037 21.2875C133.695 21.5375 133.24 21.5675 132.867 21.3675L128.439 19.0578C128.285 18.9758 128.114 18.9319 127.939 18.9269H127.668C127.574 18.9409 127.482 18.9708 127.398 19.0168L122.968 21.3375C122.749 21.4475 122.501 21.4865 122.258 21.4475C121.666 21.3355 121.271 20.7716 121.368 20.1767L122.258 15.2573C122.317 14.8984 122.198 14.5334 121.939 14.2785L118.329 10.7789C118.027 10.486 117.922 10.046 118.06 9.64907C118.194 9.25312 118.536 8.96416 118.949 8.89916L123.918 8.17826C124.296 8.13926 124.628 7.90929 124.798 7.56934L126.988 3.07992C127.04 2.97994 127.107 2.88795 127.188 2.80996L127.278 2.73997C127.325 2.68798 127.379 2.64498 127.439 2.60999L127.548 2.56999L127.718 2.5H128.139C128.515 2.53899 128.845 2.76397 129.018 3.09992L131.237 7.56934C131.397 7.8963 131.708 8.12327 132.067 8.17826L137.036 8.89916C137.456 8.95916 137.807 9.24912 137.946 9.64907C138.077 10.05 137.964 10.49 137.656 10.7789L133.917 14.3185Z" fill="#FFC51E"/>
</svg>
