<svg width="24" height="24" viewBox="0 0 24 24" fill="none" xmlns="http://www.w3.org/2000/svg">
<path fill-rule="evenodd" clip-rule="evenodd" d="M11.9986 3.01512C13.5871 2.01086 15.6972 1.73342 17.5201 2.31761C21.4853 3.59638 22.7163 7.9192 21.6153 11.3589C19.9164 16.7612 12.6609 20.7909 12.3532 20.9599C12.2438 21.0205 12.1227 21.0508 12.0015 21.0508C11.8804 21.0508 11.7602 21.0215 11.6508 20.9619C11.3451 20.7948 4.14232 16.8247 2.38681 11.3599L2.38584 11.3589C1.28388 7.91822 2.51088 3.59443 6.47224 2.31761C8.33227 1.71584 10.3594 1.98058 11.9986 3.01512ZM6.92162 3.71263C3.71638 4.7462 2.91141 8.19371 3.78184 10.9124C5.15146 15.1737 10.5625 18.6193 12.0006 19.4721C13.4434 18.6105 18.8936 15.1268 20.2193 10.9163C21.0897 8.19468 20.2818 4.74718 17.0717 3.71263C15.5164 3.21343 13.7023 3.51725 12.4499 4.48634C12.1881 4.68759 11.8247 4.69149 11.5609 4.49221C10.2343 3.49478 8.50128 3.20269 6.92162 3.71263ZM16.1339 5.65267C17.4654 6.08349 18.3983 7.26262 18.5126 8.65666C18.5449 9.06013 18.2449 9.41377 17.8415 9.446C17.821 9.44796 17.8014 9.44894 17.7809 9.44894C17.4029 9.44894 17.0824 9.15879 17.0512 8.77585C16.9867 7.97283 16.4494 7.29486 15.6845 7.0477C15.2986 6.92265 15.0876 6.50942 15.2117 6.1255C15.3377 5.7406 15.747 5.53154 16.1339 5.65267Z" fill="#006838"/>
</svg>
