<svg version="1.1" xmlns="http://www.w3.org/2000/svg" xmlns:xlink="http://www.w3.org/1999/xlink" width="1560" height="804"><defs/><g><path fill="none" stroke="#02063B" paint-order="fill stroke markers" d=" M 20 448.91139937393694 L 21 450.25344708809723 L 22 451.4618595965003 L 23 452.5332902687198 L 24 453.4647718378147 L 25 454.25372461800794 L 26 454.89796364898115 L 27 455.3957047469991 L 28 455.7455694461064 L 29 455.94658881571087 L 30 455.998206143983 L 31 455.9002784796372 L 32 455.65307702782826 L 33 455.25728639906305 L 34 454.7140027132108 L 35 454.0247305638606 L 36 453.1913788514344 L 37 452.2162554965944 L 38 451.1020610485868 L 39 449.8518812062228 L 40 448.4691782722092 L 41 446.9577815644961 L 42 445.32187681119626 L 43 443.56599455844685 L 44 441.6949976233167 L 45 439.71406762650827 L 46 437.62869064215073 L 47 435.44464200442656 L 48 433.1679703131083 L 49 430.80498068230224 L 50 428.3622172787897 L 51 425.8464451983253 L 52 423.26463173008517 L 53 420.62392706115196 L 54 417.93164447447367 L 55 415.1952400951386 L 56 412.4222922410563 L 57 409.6204804352328 L 58 406.79756413776397 L 59 403.96136125644733 L 60 401.11972649552644 L 61 398.28052960252984 L 62 395.4516335734481 L 63 392.64087287660874 L 64 389.85603175555764 L 65 387.1048226710342 L 66 384.3948649417458 L 67 381.7336636430934 L 68 379.12858882228727 L 69 376.5868550874167 L 70 374.1155016269985 L 71 371.72137271534064 L 72 369.41109875771014 L 73 367.19107792779846 L 74 365.06745844833983 L 75 363.0461215639543 L 76 361.1326652533719 L 77 359.33238872614555 L 78 357.6502777467886 L 79 356.09099082698054 L 80 354.6588463240809 L 81 353.3578104816821 L 82 352.1914864453206 L 83 351.16310428376835 L 84 350.2755120435391 L 85 349.53116786138395 L 86 348.9321331566198 L 87 348.4800669221447 L 88 348.1762211299504 L 89 348.0214372638565 L 90 348.016143989068 L 91 348.16035596501143 L 92 348.4536738047366 L 93 348.89528518099564 L 94 349.48396707593827 L 95 350.21808916819055 L 96 351.09561834793806 L 97 352.1141243475094 L 98 353.27078647186556 L 99 354.5624014103561 L 100 355.98539210810753 L 101 357.53581767247573 L 102 359.20938428712617 L 103 361.00145710351654 L 104 362.907073076849 L 105 364.92095471094314 L 106 367.0375246739652 L 107 369.250921244534 L 108 371.5550145454288 L 109 373.9434235199389 L 110 376.40953360384157 L 111 378.9465150440647 L 112 381.5473418133041 L 113 384.20481106821035 L 114 386.911563097258 L 115 389.66010170305265 L 116 392.44281496262744 L 117 395.2519963082355 L 118 398.0798658702554 L 119 400.9185920231023 L 120 403.7603130744739 L 121 406.59715903786525 L 122 409.4212734280532 L 123 412.22483501918964 L 124 415.000079505247 L 125 417.7393210028262 L 126 420.4349733367784 L 127 423.0795710496899 L 128 425.6657900770464 L 129 428.1864680308175 L 130 430.63462403528683 L 131 433.00347806019505 L 132 435.28646969765146 L 133 437.4772763308146 L 134 439.56983064402397 L 135 441.55833742588885 L 136 443.43728961880026 L 137 445.20148357041717 L 138 446.8460334448884 L 139 448.36638475390043 L 140 449.75832697007615 L 141 451.0180051877936 L 142 452.14193079913 L 143 453.1269911553651 L 144 453.9704581872865 L 145 454.6699959604241 L 146 455.2236671442887 L 147 455.6299383777001 L 148 455.8876845153444 L 149 455.99619174380075 L 150 455.9551595584072 L 151 455.7647015954917 L 152 455.4253453176626 L 153 454.93803055303067 L 154 454.3041068924079 L 155 453.52532995169196 L 156 452.60385650978645 L 157 451.54223853552355 L 158 450.34341612012963 L 159 449.01070933480815 L 160 447.54780903598953 L 161 445.95876664371167 L 162 444.24798292144044 L 163 442.420195788403 L 164 440.48046719818706 L 165 438.4341691199452 L 166 436.2869686610288 L 167 434.04481237225343 L 168 431.71390977926063 L 169 429.3007161855865 L 170 426.8119147950618 L 171 424.25439820305485 L 172 421.63524930781705 L 173 418.9617216947945 L 174 416.2412195482315 L 175 413.481277145699 L 176 410.68953799233714 L 177 407.87373365259765 L 178 405.0416623381113 L 179 402.20116731098005 L 180 399.3601151623037 L 181 396.526374026099 L 182 393.70779178894514 L 183 390.9121743557035 L 184 388.1472640315036 L 185 385.4207180798649 L 186 382.7400875163364 L 187 380.112796196384 L 188 377.5461202554409 L 189 375.0471679580597 L 190 372.622860011974 L 191 370.27991040158804 L 192 368.02480779397433 L 193 365.8637975688759 L 194 363.8028645224782 L 195 361.8477162928536 L 196 360.00376755297793 L 197 358.27612501509947 L 198 356.6695732879861 L 199 355.1885616262211 L 200 353.8371916082427 L 201 352.6192057772537 L 202 351.5379772764583 L 203 350.59650050733256 L 204 349.7973828367973 L 205 349.14283737626255 L 206 348.6346768525401 L 207 348.2743085875985 L 208 348.0627306010642 L 209 348.000528846262 L 210 348.087875587451 L 211 348.3245289227477 L 212 348.70983345406 L 213 349.24272210217555 L 214 349.92171906197694 L 215 350.7449438896016 L 216 351.7101167102246 L 217 352.8145645320443 L 218 354.05522864898217 L 219 355.4286731115973 L 220 356.93109424275497 L 221 358.5583311716965 L 222 360.3058773573365 L 223 362.1688930688748 L 224 364.1422187891584 L 225 366.220389503674 L 226 368.3976498355978 L 227 370.66796998498813 L 228 373.02506242797654 L 229 375.46239932971145 L 230 377.97323062282953 L 231 380.550602701387 L 232 383.1873776784802 L 233 385.87625315422116 L 234 388.60978243932374 L 235 391.38039517829003 L 236 394.18041831508384 L 237 397.00209734322755 L 238 399.8376177814715 L 239 402.6791268155596 L 240 405.5187550461567 L 241 408.3486382827072 L 242 411.16093932286793 L 243 413.9478696571989 L 244 416.70171103900225 L 245 419.41483685957115 L 246 422.07973326965447 L 247 424.6890199886386 L 248 427.23547074381946 L 249 429.7120332831579 L 250 432.1118489060951 L 251 434.42827145833724 L 252 436.6548857380061 L 253 438.78552526217953 L 254 440.8142893446187 L 255 442.7355594373867 L 256 444.54401469110053 L 257 446.23464669072433 L 258 447.8027733260925 L 259 449.24405175875074 L 260 450.5544904492024 L 261 451.73046021125253 L 262 452.7687042628347 L 263 453.66634724548595 L 264 454.4209031874897 L 265 455.03028238863493 L 266 455.492797207523 L 267 455.8071667353958 L 268 455.97252034354017 L 269 455.98840009444535 L 270 455.854762010035 L 271 455.5719761934621 L 272 455.1408258041289 L 273 454.5625048887713 L 274 453.8386150746136 L 275 452.9711611337517 L 276 451.96254543105016 L 277 450.81556127092745 L 278 449.53338516145686 L 279 448.119568017206 L 280 446.5780253251791 L 281 444.9130263010956 L 282 443.1291820660379 L 283 441.2314328762113 L 284 439.2250344411816 L 285 437.1155433684843 L 286 434.90880177491215 L 287 432.6109211071018 L 288 430.228265216226 L 289 427.7674327336664 L 290 425.2352387964752 L 291 422.6386961732364 L 292 419.98499584259827 L 293 417.28148707826256 L 294 414.53565709558455 L 295 411.75511031615184 L 296 408.94754730776657 L 297 406.12074345815637 L 298 403.28252744147545 L 299 400.4407595372327 L 300 397.6033098616894 L 301 394.7780365720157 L 302 391.9727641035665 L 303 389.19526150054776 L 304 386.4532209000865 L 305 383.7542362292893 L 306 381.1057821742894 L 307 378.51519347952313 L 308 375.98964463456934 L 309 373.5361300048027 L 310 371.16144446089436 L 311 368.8721645607982 L 312 366.6746303363452 L 313 364.57492773488156 L 314 362.5788717645797 L 315 360.6919903901012 L 316 358.919509223209 L 317 357.2663370507306 L 318 355.73705223994875 L 319 354.33589005907055 L 320 353.06673094789153 L 321 351.9330897711351 L 322 350.93810608423325 L 323 350.08453543850396 L 324 349.3747417498072 L 325 348.810690751813 L 326 348.39394455201256 L 327 348.1256573055497 L 328 348.00657201885275 L 329 348.03701849192055 L 330 348.2169124049597 L 331 348.5457555519033 L 332 349.02263722016494 L 333 349.6462367128057 L 334 350.4148270061301 L 335 351.32627953258105 L 336 352.3780700756878 L 337 353.56728576074136 L 338 354.89063312183725 L 339 356.34444722294364 L 340 357.9247018077358 L 341 359.6270204500859 L 342 361.4466886743295 L 343 363.37866701173965 L 344 365.41760495705256 L 345 367.5578557863909 L 346 369.7934921955469 L 347 372.11832271531887 L 348 374.52590885843546 L 349 377.00958295058496 L 350 379.5624665961631 L 351 382.17748972760273 L 352 384.84741018552864 L 353 387.5648337755092 L 354 390.322234745863 L 355 393.11197662980317 L 356 395.92633339420297 L 357 398.75751083641046 L 358 401.5976681698523 L 359 404.43893973865255 L 360 407.27345680112256 L 361 410.0933693217994 L 362 412.8908677116762 L 363 415.65820445641964 L 364 418.38771557267546 L 365 421.07184183303787 L 366 423.7031497009056 L 367 426.2743519172419 L 368 428.7783276822295 L 369 431.2081423759237 L 370 433.5570667632928 L 371 435.81859563045583 L 372 437.9864658005054 L 373 440.0546734790248 L 374 442.01749088125763 L 375 443.86948209488577 L 376 445.60551813448296 L 377 447.22079114595044 L 378 448.710827721599 L 379 450.0715012889991 L 380 451.2990435392919 L 381 452.3900548633074 L 382 453.34151376659145 L 383 454.15078523726464 L 384 454.8156280435387 L 385 455.3342009406826 L 386 455.70506777024553 L 387 455.92720143741747 L 388 455.9999867555099 L 389 455.9232221496811 L 390 455.6971202151863 L 391 455.3223071286068 L 392 454.7998209136895 L 393 454.13110856659836 L 394 453.3180220485402 L 395 452.3628131568618 L 396 451.26812728882487 L 397 450.0369961153262 L 398 448.6728291848564 L 399 447.179404480947 L 400 445.5608579592579 L 401 443.8216720932808 L 402 441.96666346038097 L 403 440.00096940255804 L 404 437.9300337988654 L 405 435.7595919888949 L 406 433.4956548890752 L 407 431.1444923457783 L 408 428.71261577133254 L 409 426.2067601110319 L 410 423.6338651910854 L 411 421.0010564991577 L 412 418.31562545073325 L 413 415.58500919595076 L 414 412.8167700228345 L 415 410.0185744139638 L 416 407.19817181458023 L 417 404.3633731709363 L 418 401.5220292983182 L 419 398.6820091386557 L 420 395.85117796793025 L 421 393.0373756137349 L 422 390.24839474331475 L 423 387.4919592822118 L 424 384.7757030232894 L 425 382.10714848537145 L 426 379.4936860800508 L 427 376.94255364436003 L 428 374.46081639598856 L 429 372.055347366561 L 430 369.73280836716197 L 431 367.4996315388258 L 432 365.362001539084 L 433 363.32583841390385 L 434 361.3967812024549 L 435 359.5801723201067 L 436 357.8810427629112 L 437 356.3040981745408 L 438 354.85370581427463 L 439 353.533882462119 L 440 352.34828329456093 L 441 351.3001917617636 L 442 350.3925104942349 L 443 349.6277532641564 L 444 349.0080380236322 L 445 348.5350810391402 L 446 348.2101921384285 L 447 348.0342710830212 L 448 348.00780507637955 L 449 348.13086741461916 L 450 348.403117283521 L 451 348.82380070239674 L 452 349.391752612196 L 453 350.1054001020718 L 454 350.96276676546887 L 455 351.9614781736698 L 456 353.0987684516423 L 457 354.3714879379741 L 458 355.77611190768295 L 459 357.30875033374434 L 460 358.965158660302 L 461 360.7407495577268 L 462 362.6306056269677 L 463 364.62949301801194 L 464 366.73187592473766 L 465 368.93193191601745 L 466 371.2235680606143 L 467 373.60043780121055 L 468 376.0559585308425 L 469 378.58332982305853 L 470 381.17555226531834 L 471 383.82544684347204 L 472 386.52567482363486 L 473 389.2687580763988 L 474 392.0470997870899 L 475 394.85300549472026 L 476 397.6787044013632 L 477 400.51637089294155 L 478 403.3581462118258 L 479 406.1961602212196 L 480 409.0225532010626 L 481 411.8294976150806 L 482 414.6092197887087 L 483 417.354021437844 L 484 420.0563009888106 L 485 422.70857463049083 L 486 425.30349704031727 L 487 427.8338817267319 L 488 430.29272093176866 L 489 432.67320503864516 L 490 434.96874143061376 L 491 437.1729727488412 L 492 439.2797944987574 L 493 441.28337195610857 L 494 443.17815632589856 L 495 444.9589001094633 L 496 446.6206716371235 L 497 448.1588687261667 L 498 449.5692314263323 L 499 450.84785381750476 L 500 451.99119482693914 L 501 452.99608803606304 L 502 453.8597504496943 L 503 454.5797902033897 L 504 455.15421318757905 L 505 455.58142857013905 L 506 455.86025320211365 L 507 455.9899148943782 L 508 455.9700545561741 L 509 455.80072718959013 L 510 455.4824017372374 L 511 455.01595978353924 L 512 454.40269311323266 L 513 453.64430013384316 L 514 452.74288117204094 L 515 451.70093265690434 L 516 450.5213402061995 L 517 449.2073706348254 L 518 447.7626629075527 L 519 446.1912180611167 L 520 444.4973881235703 L 521 442.68586406158823 L 522 440.7616627890983 L 523 438.7301132732204 L 524 436.596841775993 L 525 434.3677562727558 L 526 432.0490300903457 L 527 429.64708481041515 L 528 427.1685724852228 L 529 424.62035721514997 L 530 422.00949613896023 L 531 419.3432198894516 L 532 416.6289125686249 L 533 413.8740912978302 L 534 411.08638539952153 L 535 408.27351526827744 L 536 405.44327098960383 L 537 402.6034907657295 L 538 399.76203920814714 L 539 396.92678555701366 L 540 394.1055818877333 L 541 391.30624136507646 L 542 388.53651660505886 L 543 385.8040782045094 L 544 383.1164934977822 L 545 380.4812055994516 L 546 377.90551279102453 L 547 375.39654830876043 L 548 372.96126058857567 L 549 370.60639402274046 L 550 368.3384702816651 L 551 366.1637702524998 L 552 364.088316644572 L 553 362.1178573098319 L 554 360.25784932449903 L 555 358.5134438759983 L 556 356.8894719970348 L 557 355.39043118632213 L 558 354.02047295301156 L 559 352.783391319322 L 560 351.68261231320867 L 561 350.72118448017136 L 562 349.9017704404797 L 563 349.2266395151956 L 564 348.6976614414168 L 565 348.3163011941452 L 566 348.0836149291204 L 567 348.0002470578568 L 568 348.0664284629815 L 569 348.2819758588179 L 570 348.6462922989855 L 571 349.1583688296087 L 572 349.8167872835584 L 573 350.61972420798554 L 574 351.5649559142713 L 575 352.64986463640776 L 576 353.8714457807531 L 577 355.22631624708504 L 578 356.7107237979062 L 579 358.32055745005454 L 580 360.05135885984043 L 581 361.89833467017763 L 582 363.8563697855171 L 583 365.920041537815 L 584 368.0836347043073 L 585 370.341157335498 L 586 372.6863573495247 L 587 375.1127398469488 L 588 377.6135850980127 L 589 380.1819671525545 L 590 382.8107730210357 L 591 385.4927223735661 L 592 388.22038770236827 L 593 390.98621489184075 L 594 393.78254413925777 L 595 396.6016311681601 L 596 399.4356686756943 L 597 402.2768079544973 L 598 405.11718062925036 L 599 407.94892044770194 L 600 410.7641850658094 L 601 413.55517776667085 L 602 416.3141690530926 L 603 419.033518053997 L 604 421.7056936853854 L 605 424.32329550725024 L 606 426.8790742186783 L 607 429.3659517343803 L 608 431.7770407870513 L 609 434.10566400126817 L 610 436.34537238610613 L 611 438.4899631952555 L 612 440.53349710517944 L 613 442.4703146637349 L 614 444.2950519637074 L 615 446.00265549785047 L 616 447.5883961542888 L 617 449.0478823135284 L 618 450.37707201079854 L 619 451.5722841300463 L 620 452.6302085985799 L 621 453.5479155541296 L 622 454.32286345893505 L 623 454.952906138392 L 624 455.43629872476174 L 625 455.77170248948414 L 626 455.9581885507111 L 627 455.99524044579243 L 628 455.88275556159016 L 629 455.6210454186599 L 630 455.2108348085121 L 631 454.6532597863427 L 632 453.9498645247925 L 633 453.10259703744754 L 634 452.1138037839255 L 635 450.9862231714878 L 636 449.72297797117415 L 637 448.32756666946506 L 638 446.8038537794196 L 639 445.15605913812465 L 640 443.3887462200923 L 641 441.5068094989758 L 642 439.51546089259926 L 643 437.42021532884456 L 644 435.2268754723696 L 645 432.9415156544538 L 646 430.5704650504813 L 647 428.12029015164484 L 648 425.5977765794182 L 649 423.00991029316003 L 650 420.3638582428909 L 651 417.66694852083083 L 652 414.92665006665914 L 653 412.1505519827064 L 654 409.3463425163635 L 655 406.52178776791123 L 656 403.68471018274533 L 657 400.8429668875525 L 658 398.0044279304412 L 659 395.1769544852846 L 660 392.3683770806449 L 661 389.5864739135628 L 662 386.8389493082798 L 663 384.1334123795455 L 664 381.47735595960194 L 665 378.87813584720783 L 666 376.342950436167 L 667 373.8788207797818 L 668 371.4925711464422 L 669 369.1908101201965 L 670 366.9799122986522 L 671 364.8660006388854 L 672 362.8549295002559 L 673 360.9522684310889 L 674 359.1632867441234 L 675 357.4929389234486 L 676 355.945850903338 L 677 354.52630725698543 L 678 353.23823933061976 L 679 352.0852143558642 L 680 351.0704255704881 L 681 350.19668337491504 L 682 349.466407548977 L 683 348.88162055047 L 684 348.44394191407173 L 685 348.1545837661309 L 686 348.0143474677516 L 687 348.0236213954689 L 688 348.18237986566214 L 689 348.49018320568376 L 690 348.94617897150835 L 691 349.5491043085283 L 692 350.2972894489583 L 693 351.18866233616393 L 694 352.22075436310496 L 695 353.39070720900435 L 696 354.69528075530616 L 697 356.1308620590023 L 698 357.69347535847413 L 699 359.3787930841405 L 700 361.18214784341876 L 701 363.0985453468048 L 702 365.12267823927834 L 703 367.248940798722 L 704 369.47144446065454 L 705 371.7840341262782 L 706 374.1803052086781 L 707 376.6536213699668 L 708 379.1971329002463 L 709 381.8037956874954 L 710 384.4663907258412 L 711 387.1775441081894 L 712 389.92974744784595 L 713 392.71537867256956 L 714 395.526723133473 L 715 398.3559949703085 L 716 401.1953586739706 L 717 404.0369507864958 L 718 406.87290167846794 L 719 409.69535734351365 L 720 412.49650114953056 L 721 415.2685754864115 L 722 418.0039032503068 L 723 420.6949091049327 L 724 423.3341404610386 L 725 425.9142881159329 L 726 428.4282064959101 L 727 430.8689334455129 L 728 433.229709508831 L 729 435.50399664943376 L 730 437.6854963570936 L 731 439.76816709115684 L 732 441.7462410122487 L 733 443.6142399559808 L 734 445.366990604419 L 735 446.9996388132967 L 736 448.5076630552931 L 737 449.8868869421494 L 738 451.1334907909407 L 739 452.24402220247305 L 740 453.21540562250885 L 741 454.04495085934076 L 742 454.7303605341263 L 743 455.2697364433497 L 744 455.66158481578907 L 745 455.90482044943235 L 746 455.99876971688263 L 747 455.9431724309317 L 748 455.73818256513374 L 749 455.3843678273841 L 750 454.8827080876845 L 751 454.234592664448 L 752 453.44181647685997 L 753 452.5065750739506 L 754 451.4314585541447 L 755 450.21944439213087 L 756 448.8738891929125 L 757 447.3985193958789 L 758 445.79742095464184 L 759 444.07502802121576 L 760 442.23611066588484 L 761 440.2857616667609 L 762 438.2293824056212 L 763 436.0726679090863 L 764 433.8215910765626 L 765 431.4823861386359 L 766 429.0615313917192 L 767 426.5657312567759 L 768 424.00189771180357 L 769 421.37713114949844 L 770 418.6987007131199 L 771 415.9740241650054 L 772 413.21064734349665 L 773 410.4162232651628 L 774 407.5984909302046 L 775 404.7652538897272 L 776 401.924358634245 L 777 399.0836728632681 L 778 396.2510636961501 L 779 393.4343758845457 L 780 390.64141008681156 L 781 387.87990126452183 L 782 385.1574972609283 L 783 382.4817376206872 L 784 379.86003270951704 L 785 377.2996431916061 L 786 374.80765992161236 L 787 372.39098430694065 L 788 370.0563091946822 L 789 367.81010033615325 L 790 365.6585784803591 L 791 363.60770214598097 L 792 361.6631511195924 L 793 359.83031072581196 L 794 358.1142569129484 L 795 356.51974219544815 L 796 355.051182492074 L 797 353.7126448962659 L 798 352.5078364125558 L 799 351.4400936902265 L 800 350.51237378264943 L 801 349.7272459578919 L 802 349.0868845832733 L 803 348.59306310357783 L 804 348.24714912959877 L 805 348.0501006506172 L 806 348.00246338130466 L 807 348.1043692503974 L 808 348.3555360353266 L 809 348.7552681438185 L 810 349.3024585402975 L 811 349.99559181175937 L 812 350.83274836462186 L 813 351.8116097409313 L 814 352.9294650392014 L 815 354.1832184221021 L 816 355.56939769020744 L 817 357.0841638980557 L 818 358.723321985893 L 819 360.4823323976554 L 820 362.3563236530135 L 821 364.3401058386639 L 822 366.42818498150075 L 823 368.61477826386584 L 824 370.89383003873644 L 825 373.25902860049854 L 826 375.70382366486155 L 827 378.2214445095001 L 828 380.8049187251896 L 829 383.44709152550075 L 830 386.1406455615788 L 831 388.87812118712776 L 832 391.6519371174818 L 833 394.45441142554654 L 834 397.2777828164631 L 835 400.11423212207916 L 836 402.95590395569235 L 837 405.79492846710343 L 838 408.62344313772303 L 839 411.43361455537394 L 840 414.2176601084867 L 841 416.967869539602 L 842 419.6766262984964 L 843 422.33642863578893 L 844 424.93991037861355 L 845 427.47986133082156 L 846 429.9492472412121 L 847 432.34122928449614 L 848 434.6491830010375 L 849 436.8667166429225 L 850 438.9876888755438 L 851 441.0062257856825 L 852 442.9167371489796 L 853 444.7139319117477 L 854 446.39283284424715 L 855 447.9487903248424 L 856 449.3774952168683 L 857 450.6749908025411 L 858 451.8376837408661 L 859 452.8623540191932 L 860 453.7461638708602 L 861 454.48666563422813 L 862 455.0818085313428 L 863 455.5299443474482 L 864 455.82983199562517 L 865 455.98064095391123 L 866 455.98195356538474 L 867 455.8337661948421 L 868 455.5364892388653 L 869 455.09094598925157 L 870 454.4983703529533 L 871 453.760403434842 L 872 452.87908899276084 L 873 451.85686777745207 L 874 450.6965707730357 L 875 449.40141135675793 L 876 447.9749763997239 L 877 446.4212163332602 L 878 444.7444342084168 L 879 442.94927377891077 L 880 441.0407066405106 L 881 439.0240184624823 L 882 436.90479434922537 L 883 434.6889033726401 L 884 432.3824823180646 L 885 429.99191868879234 L 886 427.5238330162415 L 887 424.98506052476506 L 888 422.38263220188315 L 889 419.723755326358 L 890 417.015793508041 L 891 414.26624629477027 L 892 411.4827284027935 L 893 408.6729486282421 L 894 405.8446884980528 L 895 403.0057807194671 L 896 400.16408748778974 L 897 397.32747871247994 L 898 394.5038102218823 L 899 391.70090200695086 L 900 388.9265165642247 L 901 386.18833739803114 L 902 383.49394774145134 L 903 380.8508095549854 L 904 378.2662428610712 L 905 375.7474054716952 L 906 373.3012731652333 L 907 370.9346203674278 L 908 368.6540013899946 L 909 366.4657322788268 L 910 364.37587332206095 L 911 362.39021226644917 L 912 360.51424828852197 L 913 358.7531767649274 L 914 357.1118748841277 L 915 355.5948881393011 L 916 354.2064177398531 L 917 352.95030897640487 L 918 351.83004057147656 L 919 350.8487150453611 L 920 350.0090501238691 L 921 349.31337121173965 L 922 348.7636049525637 L 923 348.3612738930524 L 924 348.1074922664297 L 925 348.00296290662635 L 926 348.047975301821 L 927 348.2424047927186 L 928 348.58571291778765 L 929 349.0769489044988 L 930 349.71475230243635 L 931 350.4973567509885 L 932 351.422594871184 L 933 352.48790426812616 L 934 353.6903346274011 L 935 355.0265558858081 L 936 356.4928674537813 L 937 358.0852084639647 L 938 359.7991690175559 L 939 361.630002397272 L 940 363.5726382131171 L 941 365.62169644454053 L 942 367.771502340102 L 943 370.0161021333756 L 944 372.34927953157217 L 945 374.76457293121035 L 946 377.255293313165 L 947 379.81454276752896 L 948 382.4352335969857 L 949 385.1101079457899 L 950 387.83175789998785 L 951 390.5926460032199 L 952 393.3851261312813 L 953 396.2014646676321 L 954 399.03386192121474 L 955 401.874473727257 L 956 404.7154331712464 L 957 407.54887237590657 L 958 410.36694429084054 L 959 413.1618444244962 L 960 415.9258324582645 L 961 418.65125368285743 L 962 421.3305601975939 L 963 423.95633181388723 L 964 426.52129660503783 L 965 429.01835104542596 L 966 431.4405796833261 L 967 433.7812742928609 L 968 436.03395245205627 L 969 438.19237549554225 L 970 440.25056579218716 L 971 442.20282329981 L 972 444.04374135112636 L 973 445.76822162721 L 974 447.3714882769986 L 975 448.84910114374577 L 976 450.1969680617848 L 977 451.4113561895508 L 978 452.48890234747637 L 979 453.42662233212684 L 980 454.2219191807844 L 981 454.87259036359006 L 982 455.37683388332636 L 983 455.7332532659467 L 984 455.940861428032 L 985 455.9990834104627 L 986 455.9077579707355 L 987 455.66713802951534 L 988 455.2778899701862 L 989 454.7410917933395 L 990 454.05823013131214 L 991 453.2311961310424 L 992 452.26228021664394 L 993 451.1541657462062 L 994 449.9099215803847 L 995 448.5329935833642 L 996 447.027195079732 L 997 445.39669629368944 L 998 443.6460127998517 L 999 441.77999301761747 L 1000 439.80380478374474 L 1001 437.7229210403165 L 1002 435.5431046777377 L 1003 433.270392574733 L 1004 430.9110788795519 L 1005 428.47169757867897 L 1006 425.9590044013255 L 1007 423.37995810981903 L 1008 420.7417012277019 L 1009 418.05154025891443 L 1010 415.31692545284386 L 1011 412.5454301712766 L 1012 409.7447299144013 L 1013 406.92258106394144 L 1014 404.0867994022933 L 1015 401.24523846715675 L 1016 398.40576780160313 L 1017 395.576251159821 L 1018 392.76452472889 L 1019 389.97837542690246 L 1020 387.2255193375306 L 1021 384.5135803407694 L 1022 381.8500689990284 L 1023 379.2423617570524 L 1024 376.69768051327316 L 1025 374.2230726191668 L 1026 371.82539136201274 L 1027 369.51127698509873 L 1028 367.28713829794134 L 1029 365.1591349274489 L 1030 363.1331602591805 L 1031 361.21482511594775 L 1032 359.4094422189561 L 1033 357.72201147452245 L 1034 356.1572061271164 L 1035 354.7193598170719 L 1036 353.4124545788153 L 1037 352.2401098128447 L 1038 351.2055722620039 L 1039 350.3117070198106 L 1040 349.56098959574183 L 1041 348.95549905944927 L 1042 348.49691228289305 L 1043 348.18649929633926 L 1044 348.0251197710824 L 1045 348.01322063863455 L 1046 348.15083485297316 L 1047 348.43758129927727 L 1048 348.87266584940346 L 1049 349.4548835611789 L 1050 350.18262201542115 L 1051 351.053865781442 L 1052 352.06620199866956 L 1053 353.2168270589296 L 1054 354.5025543708811 L 1055 355.9198231851009 L 1056 357.46470845537914 L 1057 359.13293170891376 L 1058 360.9198728953007 L 1059 362.82058318150246 L 1060 364.829798657363 L 1061 366.94195491371113 L 1062 369.1512024526775 L 1063 371.45142288755153 L 1064 373.83624588730675 L 1065 376.29906681887553 L 1066 378.8330650383082 L 1067 381.4312227801621 L 1068 384.08634459280967 L 1069 386.7910772658344 L 1070 389.53793019433465 L 1071 392.3192961237321 L 1072 395.1274722176344 L 1073 397.95468139040906 L 1074 400.7930938453815 L 1075 403.63484875901827 L 1076 406.47207605103426 L 1077 409.29691818013885 L 1078 412.1015519050518 L 1079 414.8782099505312 L 1080 417.6192025184048 L 1081 420.3169385840327 L 1082 422.96394691922444 L 1083 425.55289678338255 L 1084 428.0766182255778 L 1085 430.52812194132406 L 1086 432.90061862906356 L 1087 435.18753779275664 L 1088 437.38254593849877 L 1089 439.4795641147766 L 1090 441.47278474778204 L 1091 443.35668772516044 L 1092 445.12605568365234 L 1093 446.7759884582855 L 1094 448.3019166531073 L 1095 449.6996142958692 L 1096 450.96521054161957 L 1097 452.09520039278993 L 1098 453.08645440608905 L 1099 453.93622735932 L 1100 454.6421658541184 L 1101 455.20231483355695 L 1102 455.615122996565 L 1103 455.87944709417013 L 1104 455.99455509566155 L 1105 455.960128215908 L 1106 455.7762617982153 L 1107 455.4434650502781 L 1108 454.9626596339585 L 1109 454.33517711279467 L 1110 453.56275526431114 L 1111 452.64753326734126 L 1112 451.5920457776922 L 1113 450.39921590855835 L 1114 449.0723471351238 L 1115 447.6151141457732 L 1116 446.03155266525005 L 1117 444.32604827794376 L 1118 442.50332428226034 L 1119 440.56842860971375 L 1120 438.52671984496266 L 1121 436.3838523855134 L 1122 434.14576078218334 L 1123 431.81864330369643 L 1124 429.4089447709276 L 1125 426.92333870833227 L 1126 424.36870886199847 L 1127 421.75213013549785 L 1128 419.08084899633883 L 1129 416.3622634072833 L 1130 413.60390233810324 L 1131 410.8134049145254 L 1132 407.9984992621007 L 1133 405.1669811035966 L 1134 402.3266921691797 L 1135 399.4854984791882 L 1136 396.65126855962944 L 1137 393.83185165074053 L 1138 391.03505596895974 L 1139 388.26862708250883 L 1140 385.5402264604803 L 1141 382.85741025482844 L 1142 380.22760837403195 L 1143 377.65810390638126 L 1144 375.1560129498739 L 1145 372.7282649045836 L 1146 370.3815832820756 L 1147 368.1224670850201 L 1148 365.95717280857036 L 1149 363.8916971133505 L 1150 361.9317602180431 L 1151 360.08279005756435 L 1152 358.34990725070435 L 1153 356.7379109188605 L 1154 355.2512653951428 L 1155 353.8940878606529 L 1156 352.67013694218383 L 1157 351.58280230291393 L 1158 350.6350952549257 L 1159 349.82964041954676 L 1160 349.16866845860864 L 1161 348.65400989675413 L 1162 348.28709005190274 L 1163 348.06892508791253 L 1164 348.0001192003719 L 1165 348.0808629433136 L 1166 348.31093270148625 L 1167 348.6896913096441 L 1168 349.21608981714036 L 1169 349.88867039293694 L 1170 350.7055703629855 L 1171 351.6645273687982 L 1172 352.7628856329227 L 1173 353.9976033139677 L 1174 355.36526093081187 L 1175 356.8620708326642 L 1176 358.48388768874935 L 1177 360.2262199685692 L 1178 362.084242380942 L 1179 364.0528092373757 L 1180 366.1264687027626 L 1181 368.2994778939293 L 1182 370.56581878422963 L 1183 372.9192148701289 L 1184 375.35314855362856 L 1185 377.8608791923865 L 1186 380.43546176754637 L 1187 383.0697661175778 L 1188 385.7564966848552 L 1189 388.4882127202957 L 1190 391.2573488900937 L 1191 394.05623622748914 L 1192 396.8771233715364 L 1193 399.71219803406433 L 1194 402.55360863536754 L 1195 405.39348604871475 L 1196 408.2239653934533 L 1197 411.03720781635155 L 1198 413.8254222008632 L 1199 416.5808867441854 L 1200 419.2959703423569 L 1201 421.96315372417206 L 1202 424.5750502753776 L 1203 427.12442649548586 L 1204 429.6042220305474 L 1205 432.00756922640323 L 1206 434.3278121482678 L 1207 436.5585250139641 L 1208 438.6935299897664 L 1209 440.7269142995632 L 1210 442.65304659995843 L 1211 444.46659257595854 L 1212 446.1625297140587 L 1213 447.73616121181107 L 1214 449.18312898535453 L 1215 450.4994257388834 L 1216 451.6814060626267 L 1217 452.72579652860566 L 1218 453.6297047562085 L 1219 454.3906274224755 L 1220 455.0064571949111 L 1221 455.47548856762245 L 1222 455.79642258462263 L 1223 455.9683704372152 L 1224 455.99085592550057 L 1225 455.8638167771845 L 1226 455.5876048200379 L 1227 455.16298500752936 L 1228 454.5911333003299 L 1229 453.87363340955574 L 1230 453.0124724107699 L 1231 452.0100352408881 L 1232 450.8690980932296 L 1233 449.5928207290071 L 1234 448.18473772654534 L 1235 446.6487486924656 L 1236 444.98910746194423 L 1237 443.210410317956 L 1238 441.317583262127 L 1239 439.31586837245015 L 1240 437.2108092856463 L 1241 435.0082358443714 L 1242 432.71424795179956 L 1243 430.33519867828176 L 1244 427.8776766668758 L 1245 425.3484878864702 L 1246 422.7546367830365 L 1247 420.1033068812104 L 1248 417.40184088992436 L 1249 414.65772036718886 L 1250 411.8785450003391 L 1251 409.07201155912566 L 1252 406.24589257994853 L 1253 403.408014840252 L 1254 400.5662376827058 L 1255 397.72843124919774 L 1256 394.9024546849191 L 1257 392.0961343729041 L 1258 389.3172422593026 L 1259 386.57347432941356 L 1260 383.8724292940839 L 1261 381.221587545511 L 1262 378.6282904407144 L 1263 376.09971997006176 L 1264 373.64287886715044 L 1265 371.2645712151313 L 1266 368.9713836031832 L 1267 366.7696668853249 L 1268 364.66551859208266 L 1269 362.66476604372264 L 1270 360.77295021181385 L 1271 358.9953103738222 L 1272 357.33676960322407 L 1273 355.8019211353326 L 1274 354.3950156465903 L 1275 353.11994948256034 L 1276 351.98025386721673 L 1277 350.97908512341814 L 1278 350.11921593164993 L 1279 349.40302765124017 L 1280 348.83250372532103 L 1281 348.40922418779337 L 1282 348.13436128751187 L 1283 348.00867624180825 L 1284 348.03251712834236 L 1285 348.20581792112085 L 1286 348.52809867335236 L 1287 348.9984668466333 L 1288 349.6156197827821 L 1289 350.3778483114792 L 1290 351.2830414837164 L 1291 352.32869241795197 L 1292 353.51190524277825 L 1293 354.8294031168743 L 1294 356.2775373040333 L 1295 357.85229727813237 L 1296 359.54932183005894 L 1297 361.36391114583324 L 1298 363.2910398224807 L 1299 365.3253707855995 L 1300 367.46127007009 L 1301 369.69282242310334 L 1302 372.01384768600104 L 1303 374.41791790995677 L 1304 376.8983751577989 L 1305 379.4483499427924 L 1306 382.06078025329595 L 1307 384.72843111060496 L 1308 387.4439146058208 L 1309 390.1997103602442 L 1310 392.98818635264354 L 1311 395.8016200557079 L 1312 398.6322198231511 L 1313 401.472146468238 L 1314 404.31353497397083 L 1315 407.14851627481096 L 1316 409.96923904961227 L 1317 412.7678914654164 L 1318 415.53672281187966 L 1319 418.26806496643206 L 1320 420.95435363071067 L 1321 423.5881492794579 L 1322 426.1621577638683 L 1323 428.66925051232266 L 1324 431.1024842725663 L 1325 433.45512034065524 L 1326 435.7206432234168 L 1327 437.89277868274365 L 1328 439.96551111173966 L 1329 441.9331001946067 L 1330 443.790096804126 L 1331 445.5313580927088 L 1332 447.15206173522347 L 1333 448.64771928415365 L 1334 450.014188600101 L 1335 451.2476853232066 L 1336 452.34479335372407 L 1337 453.3024743127134 L 1338 454.11807595666187 L 1339 454.7893395227229 L 1340 455.31440598423245 L 1341 455.69182119917883 L 1342 455.9205399373671 L 1343 455.99992877512534 L 1344 455.9297678495358 L 1345 455.7102514673329 L 1346 455.3419875667816 L 1347 454.8259960340267 L 1348 454.1637058785754 L 1349 453.3569512757362 L 1350 452.4079664869734 L 1351 451.31937967224565 L 1352 450.094205611465 L 1353 448.73583735523374 L 1354 447.2480368279819 L 1355 445.6349244095278 L 1356 443.90096752392043 L 1357 442.05096826715845 L 1358 440.09005010805595 L 1359 438.02364369908395 L 1360 435.8574718364841 L 1361 433.59753361130646 L 1362 431.25008779526473 L 1363 428.82163550742007 L 1364 426.3189022096984 L 1365 423.74881908109984 L 1366 421.118503822192 L 1367 418.4352409430367 L 1368 415.70646158914997 L 1369 412.9397229613625 L 1370 410.1426873865777 L 1371 407.32310109738825 L 1372 404.4887727793212 L 1373 401.6475519451236 L 1374 398.8073071959756 L 1375 395.9759044298471 L 1376 393.16118505733294 L 1377 390.3709442853083 L 1378 387.6129095285422 L 1379 384.8947190090571 L 1380 382.2239006025028 L 1381 379.6078509901288 L 1382 377.0538151740919 L 1383 374.5688664128308 L 1384 372.15988663207287 L 1385 369.83354736573165 L 1386 367.596291279467 L 1387 365.4543143280854 L 1388 363.4135485961922 L 1389 361.47964586961706 L 1390 359.6579619831112 L 1391 357.9535419876645 L 1392 356.3711061785212 L 1393 354.9150370225862 L 1394 353.5893670214323 L 1395 352.397767543512 L 1396 351.3435386565101 L 1397 350.4295999879917 L 1398 349.6584826396581 L 1399 349.03232217760296 L 1400 348.5528527179825 L 1401 348.221402124478 L 1402 348.0388883308526 L 1403 348.00581679878474 L 1404 348.1222791180211 L 1405 348.38795275272366 L 1406 348.80210193471464 L 1407 349.36357970114494 L 1408 350.0708310709433 L 1409 350.92189735124884 L 1410 351.91442156190067 L 1411 353.0456549629614 L 1412 354.3124646671991 L 1413 355.7113423164402 L 1414 357.23841379777116 L 1415 358.8894499726759 L 1416 360.6598783893969 L 1417 362.5447959460829 L 1418 364.53898246965355 L 1419 366.63691517277493 L 1420 368.83278394890823 L 1421 371.12050746307216 L 1422 373.4937499937604 L 1423 375.94593897936187 L 1424 378.4702832205029 L 1425 381.05979168789077 L 1426 383.7072928835759 L 1427 386.405454702012 L 1428 389.14680473590926 L 1429 391.9237509706462 L 1430 394.7286028099258 L 1431 397.55359237445236 L 1432 400.39089601463104 L 1433 403.2326559777285 L 1434 406.0710021694759 L 1435 408.898073949852 L 1436 411.7060419026832 L 1437 414.48712951877104 L 1438 417.23363473249685 L 1439 419.93795125225864 L 1440 422.59258962566713 L 1441 425.1901979811654 L 1442 427.7235823886189 L 1443 430.18572678250325 L 1444 432.5698123925017 L 1445 434.86923662770613 L 1446 437.0776313621205 L 1447 439.1888805708278 L 1448 441.1971372679764 L 1449 443.09683969967824 L 1450 444.88272674697475 L 1451 446.5498524962069 L 1452 448.0935999364466 L 1453 449.5096937460482 L 1454 450.794212132911 L 1455 451.9435976956621 L 1456 452.9546672756787 L 1457 453.8246207726671 L 1458 454.55104889938303 L 1459 455.1319398540164 L 1460 455.5656848917643 L 1461 455.85108278015787 L 1462 455.9873431258089 L 1463 455.9740885633595 L 1464 455.81135580057435 L 1465 455.4995955166806 L 1466 455.03967111423697 L 1467 454.4328563279891 L 1468 453.6808316973331 L 1469 452.7856799121553 L 1470 451.7498800449411 L 1471 450.57630068512276 L 1472 449.268191994682 L 1473 447.82917670701 L 1474 446.2632400939507 L 1475 444.574718928815 L 1476 442.76828947593106 L 1477 440.84895453999343 L 1478 438.82202961107765 L 1479 436.6931281436875 L 1480 434.4681460106118 L 1481 432.1532451746348 L 1482 429.7548366233269 L 1483 427.2795626141763 L 1484 424.7342782792301 L 1485 422.12603264019225 L 1486 419.4620490865544 L 1487 416.7497053708264 L 1488 413.99651317626274 L 1489 411.2100973136832 L 1490 408.39817460498523 L 1491 405.5685325118411 L 1492 402.72900756876084 L 1493 399.88746368025124 L 1494 397.0517703421747 L 1495 394.2297808476236 L 1496 391.42931053766694 L 1497 388.6581151572039 L 1498 385.92386937586207 L 1499 383.23414553343616 L 1500 380.59639266871613 L 1501 378.01791588979455 L 1502 375.5058561429806 L 1503 373.0671704363514 L 1504 370.7086125727096 L 1505 368.43671444530685 L 1506 366.2577679481333 L 1507 364.1778075508693 L 1508 362.20259358676486 L 1509 360.33759629971826 L 1510 358.5879806947443 L 1511 356.95859223378363 L 1512 355.45394341646835 L 1513 354.07820128300875 L 1514 352.8351758738094 L 1515 351.72830967777736 L 1516 350.76066809854257 L 1517 349.93493096499424 L 1518 349.2533851096474 L 1519 348.71791803538747 L 1520 348.33001268813774 L 1521 348.0907433499241 L 1522 348.0007726637114 L 1523 348.0603497982512 L 1524 348.26930975802253 L 1525 348.6270738401782 L 1526 349.13265123722954 L 1527 349.78464178103195 L 1528 350.5812398204717 L 1529 351.52023922211526 L 1530 352.59903947997145 L 1531 353.81465291744667 L 1532 355.1637129615468 L 1533 356.64248346641176 L 1534 358.24686906036123 L 1535 359.9724264877953 L 1536 361.81437691454295 L 1537 363.76761916257135 L 1538 365.8267438374131 L 1539 367.9860483091795" stroke-linecap="round" stroke-linejoin="round" stroke-miterlimit="10" stroke-width="6"/></g></svg>