 <svg
    xmlns="http://www.w3.org/2000/svg"
    xmlSpace="preserve"
    fillRule="evenodd"
    strokeLinejoin="round"
    strokeMiterlimit="2"
    clipRule="evenodd"
    viewBox="0 0 32 40"
  >
    <path d="M14.943 9.261c-.208.595-.585.708-1.003.759-.333.041-.683.056-1.035.102-1.035.136-2.078.485-2.916 1.861a1 1 0 0 0 1.708 1.04c.445-.731 1.018-.868 1.567-.93.358-.041.713-.057 1.048-.105 1.062-.152 1.984-.537 2.519-2.067a1 1 0 0 0-1.888-.66"></path>
    <path d="M12.455 5.714 9.202 7.592a5.16 5.16 0 0 0-1.889 7.048l.002.004a5.16 5.16 0 0 0 3.133 2.403 5.16 5.16 0 0 0 3.915-.515l3.253-1.878a5.16 5.16 0 0 0 1.887-7.051 5.16 5.16 0 0 0-7.048-1.889m1 1.732a3.157 3.157 0 0 1 4.316 1.157l.001.003a3.16 3.16 0 0 1-1.156 4.316L13.363 14.8a3.16 3.16 0 0 1-4.316-1.156l-.002-.004a3.157 3.157 0 0 1 1.157-4.316zM24.979 17.966s-2.239-1.492-7.631-1.089c-1.286.097-2.575 1.515-2.355 3.064.128.899.742 1.915 2.375 2.568a1 1 0 0 0 .743-1.857c-.57-.228-.927-.49-1.079-.804-.135-.279-.036-.569.133-.765.093-.107.205-.202.332-.211 4.519-.338 6.413.785 6.413.785a1 1 0 1 0 1.069-1.691"></path>
    <path d="M19.285 20.579c-2.559.678-5.124.174-5.74.033-.003 0-1.138-.706-1.138-.706a3.94 3.94 0 0 0-5.438 1.287l-.19.31a2.287 2.287 0 0 0 .65 3.076l1.822 1.258a6.4 6.4 0 0 0 3.638 1.134h6.972q.139 0 .273-.038l4.447-1.266a1 1 0 1 0-.547-1.923l-4.313 1.227h-6.832a4.4 4.4 0 0 1-2.502-.78l-1.821-1.258a.287.287 0 0 1-.082-.385l.19-.309a1.937 1.937 0 0 1 2.678-.634l1.271.79a1 1 0 0 0 .272.118s3.457.912 6.903-.001a1 1 0 0 0-.513-1.933"></path>
    <path d="M25.653 25.863v-8.916a1 1 0 0 0-2 0v8.916a1 1 0 0 0 2 0"></path>
  </svg>