<svg xmlns="http://www.w3.org/2000/svg" viewBox="0 0 64 80" x="0px" y="0px"><title>1</title><path d="M55.36328,10.9043c-6.72072-4.91307-18.92872.92242-25.24267,11.1926A25.182,25.182,0,0,0,26.189,15.999c-3.37451-3.78613-7.3623-5.519-11.22119-4.87451-3.8623.64258-7.07177,3.5708-9.03808,8.2461C.05539,31.96307,8.09729,56.57636,22.22879,54.7549c3.618-.60219,6.558-3.27822,8.4838-7.15926a10.4025,10.4025,0,0,0,5.26983,1.33942c11.2038.19452,23.75212-14.70152,23.99537-26.69844C60.21387,17.16943,58.5752,13.145,55.36328,10.9043ZM32.59863,21.98535c5.92646-8.47528,14.75782-12.724,20.43585-10.11035-3.04656,2.58441-11.09033,10.08936-11.95343,17.95361-.67437,6.14826-5.93444,11.464-8.94311,14.04077a30.62036,30.62036,0,0,0,.59155-13.28149,33.76741,33.76741,0,0,0-1.64667-6.21826C31.59991,23.47937,32.098,22.69263,32.59863,21.98535ZM6.439,34.96289c-1.29667-8.02921.13845-18.34236,7.537-21.51-.3696,3.98388-.86606,14.96508,4.01529,21.18529,4.59363,5.85346,3.60242,15.48688,3.21,18.20185C14.72345,53.31323,8.19653,45.52374,6.439,34.96289ZM23.28473,52.40338c.46478-3.66266,1.05066-12.92078-3.72028-18.99957-4.65191-5.9281-3.84936-17.29706-3.53289-20.36737,3.0693-.24419,5.96961,1.33061,8.66378,4.29309,6.14047,6.46991,8.35154,20.47475,4.74348,28.39305C28.06749,48.99435,25.93385,51.437,23.28473,52.40338ZM57.98047,22.14355c-.09694,12.08363-15.07212,28.63784-25.55754,24.09568,2.88481-2.2825,9.80223-8.49759,10.64641-16.19284.822-7.49311,9.353-15.06018,11.72314-17.02973C57.0307,14.92987,58.16736,18.125,57.98047,22.14355Z"/><text x="0" y="79" fill="#000000" font-size="5px" font-weight="bold" font-family="'Helvetica Neue', Helvetica, Arial-Unicode, Arial, Sans-serif">Created by sentya irma</text><text x="0" y="84" fill="#000000" font-size="5px" font-weight="bold" font-family="'Helvetica Neue', Helvetica, Arial-Unicode, Arial, Sans-serif">from the Noun Project</text></svg>