 <svg xmlns="http://www.w3.org/2000/svg" viewBox="-5 -10 110 135">
    <path d="M9.606 89.887c.28.457.785.738 1.32.738h78.14c.524 0 1.012-.265 1.302-.703.285-.437.332-.992.125-1.473L60.305 19.187a1.55 1.55 0 0 0-1.426-.933 1.56 1.56 0 0 0-1.426.933L40.168 58.835l-6.543-13.082a1.555 1.555 0 0 0-2.781 0L9.532 88.374a1.56 1.56 0 0 0 .066 1.512zm49.273-66.188 27.82 63.82H54.51L41.98 62.457l16.897-38.762zM32.238 49.926 51.035 87.52l-37.59-.004 18.797-37.594zM18.254 26.914c0 4.773 3.882 8.656 8.656 8.656 4.773 0 8.656-3.883 8.656-8.656s-3.883-8.656-8.656-8.656-8.656 3.883-8.656 8.656m8.656-5.55a5.557 5.557 0 0 1 5.55 5.55 5.557 5.557 0 0 1-5.55 5.55 5.557 5.557 0 0 1-5.551-5.55 5.557 5.557 0 0 1 5.55-5.55m0-5.329c-.86 0-1.555-.695-1.555-1.555v-3.55a1.554 1.554 0 1 1 3.11 0v3.55c0 .86-.696 1.555-1.555 1.555m-7.692.988a1.558 1.558 0 0 1-1.097 2.657c-.399 0-.797-.153-1.098-.457L14.51 16.71a1.56 1.56 0 0 1 0-2.2 1.56 1.56 0 0 1 2.2 0l2.511 2.512zm-9.847 9.891c0-.86.695-1.555 1.554-1.555h3.551a1.554 1.554 0 1 1 0 3.11h-3.55c-.86 0-1.555-.696-1.555-1.555m5.136 10.203 2.512-2.512a1.56 1.56 0 0 1 2.2 0c.605.606.605 1.59 0 2.2l-2.512 2.511a1.544 1.544 0 0 1-2.196 0 1.56 1.56 0 0 1 0-2.199zm12.402.676c.86 0 1.555.695 1.555 1.554v3.551a1.554 1.554 0 1 1-3.11 0v-3.55c0-.86.696-1.555 1.555-1.555m12.402-.676a1.558 1.558 0 0 1-1.097 2.656c-.399 0-.797-.152-1.098-.457l-2.512-2.512a1.56 1.56 0 0 1 0-2.199 1.56 1.56 0 0 1 2.2 0l2.511 2.512zm3.582-8.648h-3.55a1.554 1.554 0 1 1 0-3.11h3.55a1.554 1.554 0 1 1 0 3.11m-3.582-13.953c.606.605.606 1.59 0 2.199L36.8 19.226a1.544 1.544 0 0 1-2.196 0 1.56 1.56 0 0 1 0-2.199l2.512-2.511a1.56 1.56 0 0 1 2.2 0z"></path>
  </svg>